<?xml version="1.0" encoding="UTF-8"?>
<svg id="Layer_1" data-name="Layer 1" xmlns="http://www.w3.org/2000/svg" viewBox="0 0 820.4 272.88">
  <defs>
    <style>
      .cls-1 {
        fill: #ffcd00;
      }

      .cls-2 {
        fill: #e40017;
      }
    </style>
  </defs>
  <g>
    <path class="cls-2" d="m0,0v151.49c0,4,.2,10.19.58,14.08,5.97,60.24,56.97,107.3,118.99,107.3s113.02-47.06,118.99-107.3c.39-3.9.59-10.09.59-14.08V0H0Z"/>
    <path class="cls-1" d="m177.01,213.06s2.93-86.57,38.71-152.76c-13.45,8.12-23.4,11.26-29.74,15.33-3.64,2.5-5.56,5.62-5.56,10.02,0,6.7,5.62,10.54,6.52,12.46.42.89-.32,3.58-1.78,7.74-1.1-9.39-10.54-13.6-17.41-10.88-1.77.7-8.42,3.46-9.35,3.84-.93.38-1.48.89-1.84,1.73-.33.85-.31,1.6.08,2.53.39.92,3.14,7.58,3.9,9.32,2.95,6.83,12.81,10.57,20.25,4.54-.96,2.54-1.96,5.21-3.07,8.65-5.04,15.68-7.77,27.34-10.24,31.92-2.47,4.58-7.8,5.92-11.66,5.92h-9.11c-5.11,0-12.36-3.32-14.3-18.54-1.68-13.2-4.8-38.63-5.6-45.18,7.38,7.49,17.26,5.49,22.99-.25,1.56-1.56,7.35-7.57,8.16-8.4.81-.83,1.16-1.64,1.16-2.69s-.35-1.86-1.16-2.69c-.81-.83-6.61-6.84-8.16-8.4-6.09-6.11-16.89-7.97-24.38,1.29-.29-5.35.84-6.66,4.98-8.99,4.23-2.38,11.2-9.16,7.33-19.87-3.47-9.61-9.74-12.31-18.08-33.94-8.34,21.63-14.61,24.33-18.08,33.94-3.88,10.71,3.09,17.49,7.33,19.87,4.14,2.33,5.28,3.65,4.98,8.99-7.49-9.26-18.29-7.41-24.38-1.29-1.56,1.56-7.35,7.57-8.16,8.4-.81.83-1.16,1.64-1.16,2.69s.35,1.86,1.16,2.69c.81.83,6.61,6.84,8.16,8.4,5.72,5.75,15.6,7.74,22.99.25-.8,6.55-3.92,31.98-5.6,45.18-1.94,15.23-9.19,18.54-14.3,18.54h-9.11c-3.86,0-9.19-1.34-11.66-5.92-2.47-4.58-5.2-16.24-10.24-31.92-1.1-3.43-2.11-6.11-3.07-8.65,7.44,6.03,17.3,2.29,20.25-4.54.76-1.75,3.51-8.4,3.9-9.32s.41-1.68.08-2.53c-.36-.84-.92-1.35-1.84-1.73-.93-.38-7.58-3.14-9.35-3.84-6.87-2.72-16.31,1.49-17.41,10.88-1.46-4.17-2.2-6.85-1.78-7.74.9-1.92,6.52-5.76,6.52-12.46,0-4.4-1.91-7.52-5.56-10.02-6.34-4.07-16.29-7.21-29.74-15.33,35.78,66.19,38.71,152.76,38.71,152.76h114.71Z"/>
  </g>
  <g>
    <path d="m343.23,134.54l-28.22-92.71c-.09-.18-.14-.46-.14-.83,0-1.2.69-1.81,2.08-1.81h16.12c1.3,0,2.18.65,2.64,1.95l18.21,67c.09.37.28.56.56.56s.46-.18.56-.56l17.93-66.86c.46-1.39,1.34-2.08,2.64-2.08h15.71c.83,0,1.44.26,1.81.76.37.51.42,1.14.14,1.88l-28.63,92.71c-.46,1.3-1.34,1.95-2.64,1.95h-16.12c-1.3,0-2.18-.65-2.64-1.95Z"/>
    <path d="m443.72,114.66c.56-.65,1.16-.97,1.81-.97.56,0,1.06.23,1.53.69l7.92,7.65c.56.56.83,1.11.83,1.67,0,.65-.19,1.21-.56,1.67-3.06,3.8-6.97,6.79-11.75,8.97-4.77,2.18-9.99,3.27-15.64,3.27-8.53,0-15.59-2.18-21.2-6.53-5.61-4.35-9.38-10.33-11.33-17.93-1.11-4.08-1.67-8.39-1.67-12.93,0-5.37.51-9.91,1.53-13.62,1.85-6.86,5.58-12.37,11.19-16.54,5.61-4.17,12.25-6.25,19.95-6.25,9.08,0,16.28,2.69,21.61,8.06,5.33,5.38,8.78,12.93,10.36,22.66.37,3.06.65,6.44.83,10.15,0,1.58-.79,2.36-2.36,2.36h-42.67c-.56,0-.83.28-.83.83.28,1.95.6,3.38.97,4.31.92,2.87,2.76,5.07,5.49,6.6,2.73,1.53,6.05,2.29,9.94,2.29,6.12-.28,10.79-2.41,14.04-6.39Zm-25.09-31.76c-1.99,1.44-3.36,3.45-4.1,6.05-.46,1.76-.74,2.92-.83,3.48-.09.56.14.83.7.83h23.63c.46,0,.7-.18.7-.56,0-1.02-.19-2.09-.56-3.2-.83-2.69-2.27-4.82-4.31-6.39-2.04-1.57-4.63-2.36-7.78-2.36-2.97,0-5.45.72-7.44,2.15Z"/>
    <path d="m485.56,134.82c-4.63-1.76-8.2-4.22-10.7-7.37-2.5-3.15-3.75-6.72-3.75-10.7v-.69c0-1.57.79-2.36,2.36-2.36h14.04c1.57,0,2.36.28,2.36.83v.97c0,2.04,1.11,3.78,3.34,5.21,2.22,1.44,5.05,2.15,8.48,2.15,3.15,0,5.7-.6,7.64-1.81,1.95-1.2,2.92-2.78,2.92-4.73,0-1.67-.83-2.92-2.5-3.75-1.67-.83-4.4-1.71-8.2-2.64-4.54-1.2-7.92-2.27-10.15-3.2-6.02-2.04-10.8-4.54-14.32-7.51-3.52-2.96-5.28-7.23-5.28-12.79,0-6.86,2.69-12.3,8.06-16.33,5.37-4.03,12.42-6.05,21.13-6.05,5.93,0,11.14.95,15.64,2.85,4.49,1.9,7.97,4.57,10.42,7.99,2.45,3.43,3.68,7.32,3.68,11.68,0,.46-.21.86-.62,1.18-.42.33-1,.49-1.74.49h-13.62c-1.58,0-2.36-.28-2.36-.83v-.83c0-2.04-1.02-3.75-3.06-5.14-2.04-1.39-4.77-2.08-8.2-2.08-3.06,0-5.58.56-7.58,1.67-1.99,1.11-2.99,2.64-2.99,4.59s.95,3.25,2.85,4.17c1.9.93,5.03,1.9,9.38,2.92,2.69.56,5.28,1.25,7.78,2.08,6.67,1.95,11.91,4.45,15.71,7.51,3.8,3.06,5.7,7.51,5.7,13.34,0,6.86-2.73,12.21-8.2,16.05-5.47,3.85-12.79,5.77-21.96,5.77-6.21,0-11.63-.88-16.26-2.64Z"/>
    <path d="m581.05,80.75h-12.51c-.56,0-.83.28-.83.83v28.77c0,3.06.62,5.31,1.88,6.74,1.25,1.44,3.27,2.15,6.05,2.15h3.89c1.58,0,2.36.79,2.36,2.36v11.95c0,1.48-.79,2.32-2.36,2.5-3.52.19-6.07.28-7.64.28-7.69,0-13.44-1.3-17.24-3.89-3.8-2.59-5.75-7.41-5.84-14.46v-36.42c0-.56-.28-.83-.83-.83h-7.09c-1.58,0-2.36-.79-2.36-2.36v-10.98c0-1.57.79-2.36,2.36-2.36h7.09c.56,0,.83-.28.83-.83v-15.71c0-1.57.79-2.36,2.36-2.36h14.18c1.57,0,2.36.79,2.36,2.36v15.71c0,.56.28.83.83.83h12.51c1.57,0,2.36.79,2.36,2.36v10.98c0,1.58-.79,2.36-2.36,2.36Z"/>
    <path d="m639.71,67.26v11.81c0,1.58-.79,2.36-2.36,2.36h-12.65c-.56,0-.83.28-.83.83v51.85c0,1.58-.79,2.36-2.36,2.36h-14.87c-1.58,0-2.36-.79-2.36-2.36v-51.85c0-.56-.28-.83-.83-.83h-7.37c-1.58,0-2.36-.79-2.36-2.36v-11.81c0-1.57.79-2.36,2.36-2.36h7.37c.56,0,.83-.28.83-.83v-2.92c0-5.74.88-10.22,2.64-13.41,1.76-3.2,4.61-5.47,8.55-6.81,3.94-1.34,9.38-1.92,16.33-1.74h4.59c1.57,0,2.36.79,2.36,2.36v9.87c0,1.58-.79,2.36-2.36,2.36h-3.89c-3.24.09-5.49.76-6.74,2.02s-1.88,3.54-1.88,6.88v1.39c0,.56.28.83.83.83h12.65c1.58,0,2.36.79,2.36,2.36Z"/>
    <path d="m658.61,131.48c-5.56-4.08-9.36-9.64-11.4-16.68-1.3-4.35-1.95-9.08-1.95-14.18,0-5.65.7-10.56,2.08-14.73,2.13-6.86,5.95-12.23,11.47-16.12,5.51-3.89,12.21-5.84,20.08-5.84s14.11,1.95,19.53,5.84c5.42,3.89,9.2,9.22,11.33,15.98,1.39,4.26,2.08,9.13,2.08,14.6,0,4.82-.6,9.5-1.81,14.04-2.13,7.23-5.96,12.9-11.47,17.03-5.51,4.12-12.12,6.19-19.81,6.19s-14.59-2.04-20.16-6.12Zm27.8-13.48c2.13-1.85,3.66-4.4,4.59-7.64.74-2.5,1.11-5.75,1.11-9.73s-.37-7.18-1.11-9.87c-.93-3.15-2.46-5.61-4.59-7.37-2.13-1.76-4.77-2.64-7.92-2.64s-5.65.88-7.78,2.64c-2.13,1.76-3.66,4.22-4.59,7.37-.74,2.69-1.11,5.98-1.11,9.87s.37,7.04,1.11,9.73c.92,3.24,2.48,5.79,4.66,7.64,2.18,1.85,4.84,2.78,7.99,2.78,2.96,0,5.51-.93,7.65-2.78Z"/>
    <path d="m724.08,134.12V41.55c0-1.57.79-2.36,2.36-2.36h14.87c1.57,0,2.36.79,2.36,2.36v92.57c0,1.58-.79,2.36-2.36,2.36h-14.87c-1.58,0-2.36-.79-2.36-2.36Z"/>
    <path d="m803.17,39.19h14.87c1.58,0,2.36.79,2.36,2.36v92.57c0,1.58-.79,2.36-2.36,2.36h-14.87c-1.58,0-2.36-.79-2.36-2.36v-3.75c0-.37-.12-.58-.35-.63-.23-.05-.44.07-.63.35-3.8,5-9.08,7.51-15.84,7.51-6.3,0-11.88-1.88-16.75-5.63-4.86-3.75-8.22-8.69-10.08-14.8-1.58-4.45-2.36-10.01-2.36-16.68s.88-12.6,2.64-17.24c2.04-5.93,5.4-10.66,10.08-14.18,4.68-3.52,10.17-5.28,16.47-5.28,6.86,0,12.14,2.27,15.84,6.81.18.28.39.37.63.28.23-.09.35-.32.35-.7v-28.63c0-1.57.79-2.36,2.36-2.36Zm-2.5,61.58c0-6.12-.97-10.89-2.92-14.32-2.32-3.61-5.42-5.42-9.31-5.42-4.26,0-7.51,1.76-9.73,5.28-2.22,3.71-3.34,8.57-3.34,14.59,0,5.47.97,10.01,2.92,13.62,2.22,3.99,5.61,5.98,10.15,5.98,4.08,0,7.23-1.99,9.45-5.98,1.85-3.43,2.78-8.01,2.78-13.76Z"/>
  </g>
  <g>
    <path d="m324.39,182.16l22.69.03v4.25s-17.53-.02-17.53-.02v11.19s16.5.02,16.5.02v4.25s-16.52-.02-16.52-.02l-.02,16.01h-5.17s.04-35.72.04-35.72Z"/>
    <path d="m374.06,201.27l-.02,16.67h-5.22s.02-16.67.02-16.67l-14.21-19.06h5.98s10.87,14.76,10.87,14.76l10.91-14.73h5.93s-14.26,19.04-14.26,19.04Z"/>
    <path d="m397.08,182.25h5.22s-.04,31.36-.04,31.36l17.32.02v4.36s-22.55-.03-22.55-.03l.04-35.71Z"/>
    <path d="m451.75,218.03l-17.56-16.84-.02,16.82h-5.22s.04-35.72.04-35.72h5.22s-.02,16.27-.02,16.27l16.84-16.24h6.43s-18.05,17.26-18.05,17.26l18.87,18.46h-6.54Z"/>
    <path d="m467.29,182.33l23.2.03v4.2s-18.09-.02-18.09-.02v11.25s17.06.02,17.06.02v4.25s-17.08-.02-17.08-.02v11.8s18.07.02,18.07.02v4.2s-23.21-.03-23.21-.03l.04-35.71Z"/>
    <path d="m506.53,217.38c-2.31-.75-4.3-1.85-5.95-3.3l1.88-3.85c1.75,1.42,3.57,2.44,5.44,3.07,1.87.63,3.97.94,6.31.95,2.67,0,4.73-.49,6.18-1.49,1.45-.99,2.18-2.4,2.18-4.23,0-1.55-.67-2.71-2.02-3.47s-3.51-1.48-6.48-2.16c-2.84-.61-5.17-1.31-6.99-2.08-1.82-.78-3.25-1.84-4.28-3.17-1.03-1.33-1.54-3.03-1.54-5.09,0-2.09.55-3.93,1.65-5.52,1.1-1.59,2.66-2.82,4.69-3.72,2.03-.89,4.38-1.34,7.04-1.33,2.5,0,4.85.39,7.07,1.15,2.21.76,4.02,1.85,5.44,3.27l-1.83,3.85c-1.65-1.35-3.35-2.36-5.09-3.02s-3.59-.99-5.55-.99c-2.57,0-4.58.53-6.05,1.59-1.47,1.06-2.21,2.54-2.21,4.43,0,1.62.64,2.85,1.92,3.68,1.28.83,3.34,1.58,6.18,2.26,2.97.68,5.38,1.38,7.21,2.11,1.84.73,3.31,1.73,4.4,2.99,1.1,1.27,1.64,2.92,1.64,4.94,0,2.06-.55,3.87-1.65,5.42-1.1,1.55-2.67,2.75-4.72,3.59-2.04.84-4.47,1.26-7.27,1.26-2.77,0-5.31-.38-7.62-1.12Z"/>
    <path d="m562.33,218.16l-17.56-16.84-.02,16.82h-5.22s.04-35.72.04-35.72h5.22s-.02,16.27-.02,16.27l16.84-16.24h6.43s-18.05,17.26-18.05,17.26l18.87,18.46h-6.54Z"/>
    <path d="m581.25,216.36c-2.48-1.49-4.39-3.6-5.74-6.34-1.35-2.74-2.02-5.96-2.01-9.68,0-3.75.67-7,2.01-9.75,1.34-2.75,3.26-4.86,5.76-6.32,2.5-1.47,5.44-2.2,8.82-2.19,3.41,0,6.36.74,8.86,2.21,2.5,1.47,4.41,3.58,5.74,6.34,1.33,2.75,1.99,5.99,1.99,9.7,0,3.72-.68,6.95-2.01,9.7-1.34,2.75-3.26,4.87-5.76,6.35-2.5,1.48-5.46,2.22-8.87,2.22-3.38,0-6.31-.75-8.79-2.24Zm17.15-5.65c2-2.43,3-5.89,3-10.38,0-4.49-.98-7.95-2.95-10.36-1.97-2.42-4.77-3.63-8.38-3.63-3.55,0-6.31,1.2-8.29,3.61-1.98,2.41-2.97,5.86-2.98,10.35,0,4.49.98,7.95,2.95,10.39,1.97,2.43,4.73,3.65,8.28,3.66,3.58,0,6.37-1.21,8.36-3.64Z"/>
    <path d="m651.68,182.56l-.04,35.71h-4.71s.08-25.84.08-25.84l-10.66,20.1h-3.55s-10.66-19.87-10.66-19.87l.02,25.58h-4.71s.04-35.72.04-35.72h4.21s12.94,24.74,12.94,24.74l12.9-24.7h4.15Z"/>
    <path d="m700.15,182.62l-.04,35.71h-4.71s.08-25.84.08-25.84l-10.66,20.1h-3.55s-10.66-19.87-10.66-19.87l.02,25.58h-4.71s.04-35.72.04-35.72h4.21s12.94,24.74,12.94,24.74l12.9-24.7h4.15Z"/>
    <path d="m716.58,215.06c-2.46-2.47-3.69-6.1-3.68-10.9l.03-21.53h5.17s-.03,21.89-.03,21.89c0,3.28.78,5.76,2.35,7.45,1.57,1.69,3.91,2.54,7.01,2.54,3.07,0,5.4-.84,6.99-2.52,1.59-1.69,2.39-4.17,2.39-7.44l.03-21.88h5.17s-.03,21.53-.03,21.53c0,4.76-1.25,8.38-3.74,10.86-2.49,2.48-6.09,3.72-10.82,3.71-4.76,0-8.37-1.24-10.84-3.71Z"/>
    <path d="m783.78,182.72l-.04,35.71h-4s-20.38-26.98-20.38-26.98l-.03,26.95h-4.91s.04-35.72.04-35.72h3.95s20.43,27.03,20.43,27.03l.03-27h4.91Z"/>
    <path d="m796.29,182.74l23.2.03v4.2s-18.09-.02-18.09-.02v11.25s17.06.02,17.06.02v4.25s-17.08-.02-17.08-.02v11.8s18.07.02,18.07.02v4.2s-23.21-.03-23.21-.03l.04-35.71Z"/>
  </g>
</svg>